<svg xmlns="http://www.w3.org/2000/svg" viewBox="0 0 74 14" width="74" height="14">
	<style>
		tspan { white-space:pre }
		.shp0 { fill: #ff3900 } 
		.shp1 { fill: #ffffff } 
		.shp2 { fill: #f47b20 } 
		.shp3 { fill: none;stroke: #000000;stroke-width: 0.295 } 
	</style>
	<g id="layer11">
		<path id="rect13634" class="shp0" d="M51.56 0L73.56 0L73.56 4.56L51.56 4.56L51.56 0Z" />
		<g id="text13638">
			<path id="path852" fill-rule="evenodd" class="shp1" d="M53.11 0.93L53.89 0.93C54.18 0.93 54.4 0.99 54.54 1.12C54.69 1.25 54.77 1.44 54.77 1.69C54.77 1.95 54.69 2.14 54.54 2.27C54.4 2.4 54.18 2.46 53.89 2.46L53.46 2.46L53.46 3.49L53.11 3.49L53.11 0.93ZM53.46 1.21L53.46 2.18L53.89 2.18C54.05 2.18 54.18 2.13 54.27 2.05C54.36 1.97 54.4 1.85 54.4 1.69C54.4 1.54 54.36 1.42 54.27 1.34C54.18 1.25 54.05 1.21 53.89 1.21L53.46 1.21Z" />
			<path id="path854" class="shp1" d="M55.19 0.93L55.54 0.93L55.54 2.49C55.54 2.76 55.59 2.96 55.69 3.08C55.79 3.2 55.95 3.26 56.18 3.26C56.4 3.26 56.56 3.2 56.66 3.08C56.76 2.96 56.81 2.76 56.81 2.49L56.81 0.93L57.16 0.93L57.16 2.53C57.16 2.86 57.08 3.12 56.91 3.29C56.74 3.46 56.5 3.54 56.18 3.54C55.85 3.54 55.61 3.46 55.44 3.29C55.28 3.12 55.19 2.86 55.19 2.53L55.19 0.93Z" />
			<path id="path856" fill-rule="evenodd" class="shp1" d="M57.81 0.93L58.7 0.93C58.96 0.93 59.17 0.98 59.31 1.09C59.45 1.2 59.52 1.36 59.52 1.56C59.52 1.72 59.49 1.84 59.41 1.94C59.34 2.03 59.23 2.09 59.09 2.11C59.26 2.15 59.39 2.22 59.49 2.34C59.58 2.46 59.63 2.6 59.63 2.77C59.63 3 59.55 3.18 59.4 3.31C59.24 3.43 59.02 3.49 58.73 3.49L57.81 3.49L57.81 0.93ZM58.16 1.21L58.16 1.99L58.67 1.99C58.84 1.99 58.97 1.95 59.05 1.89C59.13 1.83 59.18 1.73 59.18 1.6C59.18 1.47 59.13 1.37 59.05 1.31C58.97 1.24 58.84 1.21 58.67 1.21L58.16 1.21ZM58.16 2.27L58.16 3.21L58.72 3.21C58.9 3.21 59.04 3.17 59.13 3.09C59.22 3.01 59.27 2.9 59.27 2.74C59.27 2.58 59.22 2.46 59.13 2.38C59.04 2.31 58.9 2.27 58.72 2.27L58.16 2.27Z" />
			<path id="path858" class="shp1" d="M60.22 0.93L60.57 0.93L60.57 3.2L61.82 3.2L61.82 3.49L60.22 3.49L60.22 0.93Z" />
			<path id="path860" class="shp1" d="M62.18 0.93L62.53 0.93L62.53 3.49L62.18 3.49L62.18 0.93Z" />
			<path id="path862" class="shp1" d="M64.76 1.01L64.76 1.35C64.63 1.29 64.5 1.24 64.39 1.21C64.27 1.18 64.16 1.16 64.05 1.16C63.86 1.16 63.71 1.2 63.61 1.27C63.51 1.35 63.46 1.45 63.46 1.59C63.46 1.7 63.49 1.78 63.56 1.84C63.63 1.9 63.76 1.95 63.95 1.98L64.16 2.03C64.42 2.07 64.61 2.16 64.73 2.29C64.85 2.41 64.91 2.58 64.91 2.78C64.91 3.03 64.83 3.22 64.66 3.35C64.5 3.48 64.25 3.54 63.93 3.54C63.81 3.54 63.68 3.53 63.54 3.5C63.41 3.47 63.27 3.43 63.12 3.38L63.12 3.02C63.26 3.1 63.4 3.16 63.53 3.2C63.67 3.24 63.8 3.26 63.93 3.26C64.13 3.26 64.28 3.22 64.39 3.14C64.5 3.07 64.55 2.95 64.55 2.81C64.55 2.68 64.51 2.59 64.44 2.51C64.36 2.44 64.23 2.39 64.06 2.36L63.84 2.31C63.58 2.26 63.4 2.18 63.28 2.07C63.17 1.96 63.11 1.81 63.11 1.61C63.11 1.39 63.19 1.21 63.35 1.08C63.51 0.95 63.73 0.88 64.01 0.88C64.13 0.88 64.25 0.89 64.38 0.91C64.5 0.93 64.63 0.97 64.76 1.01L64.76 1.01Z" />
			<path id="path864" class="shp1" d="M65.46 0.93L65.8 0.93L65.8 1.98L67.06 1.98L67.06 0.93L67.41 0.93L67.41 3.49L67.06 3.49L67.06 2.27L65.8 2.27L65.8 3.49L65.46 3.49L65.46 0.93Z" />
			<path id="path866" class="shp1" d="M68.1 0.93L69.72 0.93L69.72 1.22L68.45 1.22L68.45 1.98L69.67 1.98L69.67 2.27L68.45 2.27L68.45 3.2L69.76 3.2L69.76 3.49L68.1 3.49L68.1 0.93Z" />
			<path id="path868" fill-rule="evenodd" class="shp1" d="M71.55 2.29C71.55 2.29 71.55 2.29 71.55 2.29C71.55 2.29 71.55 2.29 71.55 2.29ZM71.76 2.45C71.83 2.53 71.91 2.65 71.98 2.79L72.33 3.49L71.96 3.49L71.63 2.83C71.54 2.66 71.46 2.55 71.38 2.49C71.3 2.44 71.19 2.41 71.06 2.41L70.68 2.41L70.68 3.49L70.33 3.49L70.33 0.93L71.11 0.93C71.41 0.93 71.63 0.99 71.77 1.11C71.91 1.23 71.99 1.42 71.99 1.67C71.99 1.83 71.95 1.96 71.87 2.07C71.8 2.17 71.69 2.25 71.55 2.29C71.62 2.31 71.69 2.37 71.76 2.45ZM70.68 1.21L70.68 2.12L71.11 2.12C71.28 2.12 71.41 2.08 71.49 2.01C71.58 1.93 71.62 1.82 71.62 1.67C71.62 1.52 71.58 1.4 71.49 1.33C71.41 1.25 71.28 1.21 71.11 1.21L70.68 1.21Z" />
		</g>
		<g id="text13642">
			<path id="path831" fill-rule="evenodd" class="shp1" d="M7.74 12.37L7.36 11.12L5.44 11.12L5.06 12.37L3.85 12.37L5.71 7.08L7.08 7.08L8.95 12.37L7.74 12.37ZM7.09 10.18C6.74 9.04 6.54 8.4 6.5 8.25C6.45 8.1 6.42 7.98 6.4 7.9C6.32 8.21 6.1 8.97 5.72 10.18L7.09 10.18Z" />
			<path id="path833" fill-rule="evenodd" class="shp1" d="M12.71 10.05C12.36 10.35 11.85 10.5 11.2 10.5L10.72 10.5L10.72 12.37L9.61 12.37L9.61 7.1L11.29 7.1C11.93 7.1 12.41 7.24 12.74 7.52C13.08 7.79 13.24 8.2 13.24 8.74C13.24 9.31 13.07 9.75 12.71 10.05ZM10.72 9.58L11.09 9.58C11.43 9.58 11.69 9.51 11.86 9.38C12.03 9.24 12.12 9.04 12.12 8.78C12.12 8.52 12.04 8.33 11.9 8.2C11.76 8.08 11.54 8.02 11.23 8.02L10.72 8.02L10.72 9.58Z" />
			<path id="path835" class="shp1" d="M14.25 12.37L14.25 7.1L15.36 7.1L15.36 12.37L14.25 12.37Z" />
			<path id="path837" class="shp1" d="M20.84 12.37L19.58 8.24L19.54 8.24C19.59 9.08 19.61 9.64 19.61 9.92L19.61 12.37L18.61 12.37L18.61 7.1L20.13 7.1L21.38 11.13L21.4 11.13L22.72 7.1L24.25 7.1L24.25 12.37L23.2 12.37L23.2 9.88C23.2 9.76 23.21 9.62 23.21 9.47C23.21 9.32 23.23 8.91 23.26 8.24L23.23 8.24L21.87 12.37L20.84 12.37Z" />
			<path id="path839" fill-rule="evenodd" class="shp1" d="M28.8 12.37L28.42 11.12L26.5 11.12L26.12 12.37L24.91 12.37L26.77 7.08L28.14 7.08L30 12.37L28.8 12.37ZM28.15 10.18C27.8 9.04 27.6 8.4 27.55 8.25C27.51 8.1 27.48 7.98 27.46 7.9C27.38 8.21 27.15 8.97 26.78 10.18L28.15 10.18Z" />
			<path id="path841" class="shp1" d="M35.34 12.37L33.92 12.37L31.63 8.38L31.59 8.38C31.64 9.09 31.66 9.59 31.66 9.89L31.66 12.37L30.66 12.37L30.66 7.1L32.07 7.1L34.36 11.05L34.39 11.05C34.35 10.36 34.33 9.88 34.33 9.6L34.33 7.1L35.34 7.1L35.34 12.37Z" />
			<path id="path843" fill-rule="evenodd" class="shp1" d="M39.88 12.37L39.5 11.12L37.58 11.12L37.2 12.37L36 12.37L37.86 7.08L39.22 7.08L41.09 12.37L39.88 12.37ZM39.24 10.18C38.88 9.04 38.68 8.4 38.64 8.25C38.59 8.1 38.56 7.98 38.54 7.9C38.46 8.21 38.24 8.97 37.86 10.18L39.24 10.18Z" />
			<path id="path845" class="shp1" d="M43.75 9.41L45.84 9.41L45.84 12.14C45.5 12.25 45.18 12.33 44.88 12.37C44.58 12.42 44.28 12.44 43.96 12.44C43.17 12.44 42.56 12.21 42.14 11.74C41.72 11.27 41.51 10.6 41.51 9.73C41.51 8.88 41.76 8.22 42.24 7.74C42.73 7.26 43.4 7.03 44.27 7.03C44.81 7.03 45.33 7.13 45.83 7.35L45.46 8.24C45.07 8.05 44.67 7.96 44.26 7.96C43.78 7.96 43.39 8.12 43.1 8.44C42.81 8.77 42.66 9.2 42.66 9.75C42.66 10.32 42.78 10.76 43.01 11.06C43.25 11.36 43.59 11.51 44.03 11.51C44.27 11.51 44.5 11.49 44.74 11.44L44.74 10.34L43.75 10.34L43.75 9.41Z" />
			<path id="path847" class="shp1" d="M50.13 12.37L47.09 12.37L47.09 7.1L50.13 7.1L50.13 8.02L48.21 8.02L48.21 9.17L49.99 9.17L49.99 10.09L48.21 10.09L48.21 11.45L50.13 11.45L50.13 12.37Z" />
			<path id="path849" fill-rule="evenodd" class="shp1" d="M52.35 10.35L52.35 12.37L51.23 12.37L51.23 7.1L52.77 7.1C53.48 7.1 54.01 7.23 54.35 7.49C54.7 7.75 54.87 8.15 54.87 8.68C54.87 8.99 54.78 9.27 54.61 9.51C54.44 9.75 54.2 9.94 53.89 10.07C54.68 11.26 55.2 12.02 55.44 12.37L54.2 12.37L52.94 10.35L52.35 10.35ZM52.35 9.44L52.71 9.44C53.06 9.44 53.32 9.38 53.49 9.26C53.66 9.15 53.74 8.96 53.74 8.71C53.74 8.46 53.66 8.28 53.48 8.18C53.31 8.07 53.05 8.02 52.69 8.02L52.35 8.02L52.35 9.44Z" />
		</g>
		<g id="g13654">
			<path id="path13644" fill-rule="evenodd" class="shp2" d="M14.12 5.52C15.62 5.52 16.85 4.29 16.85 2.79C16.85 1.29 15.62 0.07 14.12 0.07C12.62 0.07 11.39 1.29 11.39 2.79C11.39 4.29 12.62 5.52 14.12 5.52Z" />
			<path id="polyline13646" class="shp3" d="M11.42 3.14L13.23 3.14L14.13 1.13L15.26 3.88L15.85 2.81L16.84 2.81" />
			<path id="path13648" fill-rule="evenodd" class="shp2" d="M7.64 4.88L7.64 4.21L8.02 4.09C8.09 4.43 8.23 4.68 8.42 4.86C8.61 5.04 8.85 5.13 9.14 5.13C9.46 5.13 9.74 5.02 9.95 4.81C10.16 4.59 10.27 4.32 10.27 4C10.27 3.72 10.17 3.5 9.95 3.36C9.74 3.21 9.49 3.07 9.19 2.92L9.09 2.87L8.99 2.82C8.67 2.68 8.38 2.51 8.11 2.29C7.84 2.08 7.7 1.77 7.7 1.38C7.7 0.96 7.85 0.62 8.15 0.35C8.45 0.08 8.84 -0.05 9.31 -0.05C9.59 -0.05 9.85 0.02 10.09 0.17C10.33 0.32 10.54 0.53 10.7 0.82L10.2 1.13C10.18 1.09 10.16 1.06 10.14 1.05L10.08 0.96C9.97 0.81 9.85 0.7 9.73 0.63C9.61 0.57 9.46 0.53 9.28 0.53C9.02 0.53 8.79 0.61 8.61 0.76C8.42 0.92 8.32 1.12 8.32 1.36C8.32 1.61 8.42 1.79 8.6 1.92C8.79 2.05 9.02 2.18 9.3 2.33L9.45 2.4L9.61 2.47C9.92 2.61 10.21 2.79 10.49 3.02C10.76 3.24 10.9 3.56 10.9 3.99C10.9 4.47 10.73 4.88 10.39 5.21C10.05 5.54 9.64 5.71 9.15 5.71C8.7 5.71 8.32 5.58 8.02 5.33C7.87 5.21 7.74 5.06 7.64 4.88L7.64 4.88ZM7.64 0.04L7.87 0.04L7.64 0.61L7.64 0.04ZM2.17 4.21L3.91 -0.25L5.56 4.22L7.19 0.04L7.64 0.04L7.64 0.61L5.54 5.9L3.89 1.44L2.14 5.9L0 0.04L0.68 0.04L2.17 4.21ZM7.64 4.88C7.54 4.7 7.47 4.5 7.41 4.28L7.64 4.21L7.64 4.88Z" />
			<path id="path13650" class="shp1" d="M14.13 -0.32C15.02 -0.32 15.77 -0.01 16.37 0.58C16.98 1.19 17.29 1.94 17.29 2.83C17.29 3.7 16.99 4.45 16.37 5.06C15.76 5.67 15.02 5.98 14.14 5.98C14.14 5.98 14.14 5.98 14.13 5.98L14.13 5.39C14.59 5.39 15.02 5.28 15.41 5.06C15.81 4.83 16.12 4.52 16.34 4.13C16.56 3.74 16.67 3.3 16.67 2.82C16.67 2.35 16.56 1.92 16.34 1.53C16.12 1.15 15.8 0.84 15.4 0.61C15 0.38 14.58 0.26 14.13 0.26L14.13 -0.32ZM14.09 -0.32C14.11 -0.32 14.12 -0.32 14.13 -0.32L14.13 0.26C14.13 0.26 14.13 0.26 14.12 0.26C13.68 0.26 13.26 0.38 12.86 0.61C12.46 0.84 12.15 1.15 11.93 1.54C11.71 1.94 11.6 2.37 11.6 2.85C11.6 3.57 11.84 4.17 12.34 4.66C12.83 5.15 13.43 5.39 14.12 5.39C14.13 5.39 14.13 5.39 14.13 5.39L14.13 5.98C13.25 5.97 12.5 5.67 11.89 5.06C11.28 4.46 10.97 3.72 10.97 2.85C10.97 2.28 11.11 1.74 11.39 1.25C11.67 0.76 12.05 0.37 12.53 0.09C13.01 -0.19 13.53 -0.32 14.09 -0.32L14.09 -0.32Z" />
			<path id="path13652" class="shp1" d="M1.5 6.63C1.64 6.59 1.79 6.57 1.95 6.57C2.37 6.57 2.72 6.71 2.98 6.98C3.24 7.26 3.37 7.58 3.37 7.95C3.37 8.21 3.31 8.46 3.19 8.69C3.06 8.92 2.82 9.23 2.45 9.62L1.31 10.86L3.44 10.86L3.44 11.3L0.3 11.3L2.07 9.4C2.43 9.02 2.66 8.73 2.77 8.55C2.87 8.36 2.93 8.17 2.93 7.96C2.93 7.7 2.83 7.48 2.64 7.29C2.44 7.11 2.21 7.01 1.92 7.01C1.76 7.01 1.62 7.04 1.49 7.1C1.5 6.99 1.5 6.87 1.5 6.76C1.5 6.72 1.5 6.67 1.5 6.63L1.5 6.63Z" />
		</g>
	</g>
</svg>